# xmcd
#
# Track frame offsets: 
#        150
#        21222
#        46422
#        68124
#        92457
#        116211
#        136866
#        158297
#        179422
#        201282
#        221400
#        246316
#
# Disc length: 3595 seconds
#
# Revision: 2
# Processed by: cddbd v1.5.2PL0 Copyright (c) Steve Scherf et al.
# Submitted via: ExactAudioCopyFreeDBPlugin 1.0
#
DISCID=a20e090c
DTITLE=刘紫玲 - 又見知音
DYEAR=2006
DGENRE=Pop
TTITLE0=最遠的你是我最近的愛
TTITLE1=小小的太陽
TTITLE2=菊花台
TTITLE3=千里之外
TTITLE4=藍眼淚
TTITLE5=真的好愛你
TTITLE6=春光美
TTITLE7=冰吻
TTITLE8=給我一個不傷心的理由
TTITLE9=你是我的玫瑰花
TTITLE10=愛一回傷一回
TTITLE11=秋天不回來
EXTD=
EXTT0=
EXTT1=
EXTT2=
EXTT3=
EXTT4=
EXTT5=
EXTT6=
EXTT7=
EXTT8=
EXTT9=
EXTT10=
EXTT11=
PLAYORDER=
